# xmcd
#
# Track frame offsets: 
#        150
#        13782
#        27830
#        47580
#        61095
#        74710
#        93310
#        105545
#        121552
#        135840
#        146862
#        163370
#        175370
#        188067
#        204475
#        218815
#        236525
#        254295
#        269710
#        280562
#        296975
#        309417
#        321985
#
# Disc length: 4479 seconds
#
# Revision: 4
# Processed by: cddbd v1.5.2PL0 Copyright (c) Steve Scherf et al.
# Submitted via: ExactAudioCopy v0.95b4
#
DISCID=5a117d17
DTITLE=Randy Travis - Trail Of Memories: The Randy Travis Anthology [D
DTITLE=isc 1]
DYEAR=2002
DGENRE=Country
TTITLE0=Diggin' Up Bones
TTITLE1=On The Other Hand
TTITLE2=Reasons I Cheat
TTITLE3=1982
TTITLE4=Send My Body
TTITLE5=No Place Like Home
TTITLE6=Anything
TTITLE7=Forever And Ever, Amen
TTITLE8=I Won't Need You Anymore (Always And Forever)
TTITLE9=Too Gone Too Long
TTITLE10=I Told You So (Single Remix)
TTITLE11=What'll You Do About Me
TTITLE12=Honky Tonk Moon
TTITLE13=Deeper Than The Holler
TTITLE14=Is It Still Over?
TTITLE15=It's Just A Matter Of Time (Country Single Mix)
TTITLE16=Hard Rock Bottom Of Your Heart (Single Remix)
TTITLE17=He Walked On Water
TTITLE18=Card Carryin' Fool
TTITLE19=A Few Ole Country Boys - with George Jones
TTITLE20=Waiting On The Light To Change - with B.B. King
TTITLE21=We're Stangers Again - with Tammy Wynette
TTITLE22=All Night Long - with Merle Haggard
EXTD=
EXTT0=
EXTT1=
EXTT2=
EXTT3=
EXTT4=
EXTT5=
EXTT6=
EXTT7=
EXTT8=
EXTT9=
EXTT10=
EXTT11=
EXTT12=
EXTT13=
EXTT14=
EXTT15=
EXTT16=
EXTT17=
EXTT18=
EXTT19=
EXTT20=
EXTT21=
EXTT22=
PLAYORDER=
